<!DOCTYPE svg PUBLIC "-//W3C//DTD SVG 20010904//EN" "http://www.w3.org/TR/2001/REC-SVG-20010904/DTD/svg10.dtd">
<svg version="1.0" xmlns="http://www.w3.org/2000/svg" width="351px" height="341px" viewBox="0 0 3510 3410" preserveAspectRatio="xMidYMid meet">
<g id="layer101" fill="#013366" stroke="none">
<path d="M1592 3167 c-127 -127 -232 -235 -232 -240 0 -4 70 -7 156 -7 120 0 155 -3 152 -12 -4 -10 -47 -13 -174 -13 l-169 0 -1 170 0 170 -72 3 -72 3 0 -246 0 -245 318 2 317 3 0 155 0 155 -54 3 -54 3 74 75 74 74 307 -307 c170 -169 308 -305 308 -300 0 4 0 142 0 307 0 165 0 305 0 310 0 6 -30 10 -70 10 l-69 0 -3 -140 -3 -140 -141 140 -142 140 -102 0 -101 0 5 80 c3 58 1 80 -7 80 -7 0 -117 -105 -245 -233z"/>
<path d="M0 2920 l0 -320 322 0 323 0 -320 320 c-176 176 -321 320 -322 320 -2 0 -3 -144 -3 -320z"/>
<path d="M2500 2995 l0 -245 75 0 75 0 0 170 0 170 430 0 430 0 0 75 0 75 -505 0 -505 0 0 -245z"/>
<path d="M0 1625 l0 -325 972 0 973 0 -325 325 -325 325 -647 0 -648 0 0 -325z"/>
<path d="M0 325 l0 -325 1622 0 1623 0 -325 325 -325 325 -1297 0 -1298 0 0 -325z"/>
</g>
<g id="layer102" fill="#2ca979" stroke="none">
<path d="M590 2925 l325 -325 186 2 186 3 -317 323 -316 322 -195 0 -194 0 325 -325z"/>
<path d="M1840 3228 c0 -7 -19 -33 -42 -58 l-43 -45 50 47 50 48 305 -305 c167 -167 306 -303 307 -301 3 2 5 499 3 616 0 6 -30 10 -70 10 l-69 0 -3 -140 -3 -140 -141 140 -142 140 -101 0 c-72 0 -101 -3 -101 -12z"/>
<path d="M1814 2880 c0 -69 1 -97 3 -62 2 34 2 90 0 125 -2 34 -3 6 -3 -63z"/>
<path d="M1580 1942 c0 -4 143 -150 318 -325 l317 -317 648 0 647 0 0 325 0 325 -965 0 c-531 0 -965 -3 -965 -8z"/>
<path d="M2880 643 c0 -10 613 -623 623 -623 4 0 6 141 5 313 l-3 312 -312 3 c-172 1 -313 -1 -313 -5z"/>
</g>


</svg>